<svg width="129" height="33" viewBox="0 0 129 33" fill="none" xmlns="http://www.w3.org/2000/svg">
<path d="M14.928 26L10.608 19.76H10.352H5.84V26H0.656V3.6H10.352C12.336 3.6 14.0533 3.93067 15.504 4.592C16.976 5.25333 18.1067 6.192 18.896 7.408C19.6853 8.624 20.08 10.064 20.08 11.728C20.08 13.392 19.6747 14.832 18.864 16.048C18.0747 17.2427 16.944 18.16 15.472 18.8L20.496 26H14.928ZM14.832 11.728C14.832 10.4693 14.4267 9.50933 13.616 8.848C12.8053 8.16533 11.6213 7.824 10.064 7.824H5.84V15.632H10.064C11.6213 15.632 12.8053 15.2907 13.616 14.608C14.4267 13.9253 14.832 12.9653 14.832 11.728ZM40.6993 17.456C40.6993 17.52 40.6673 17.968 40.6033 18.8H27.5793C27.8139 19.8667 28.3686 20.7093 29.2433 21.328C30.1179 21.9467 31.2059 22.256 32.5073 22.256C33.4033 22.256 34.1926 22.128 34.8753 21.872C35.5793 21.5947 36.2299 21.168 36.8273 20.592L39.4833 23.472C37.8619 25.328 35.4939 26.256 32.3793 26.256C30.4379 26.256 28.7206 25.8827 27.2273 25.136C25.7339 24.368 24.5819 23.312 23.7713 21.968C22.9606 20.624 22.5553 19.0987 22.5553 17.392C22.5553 15.7067 22.9499 14.192 23.7393 12.848C24.5499 11.4827 25.6486 10.4267 27.0353 9.68C28.4433 8.912 30.0113 8.528 31.7393 8.528C33.4246 8.528 34.9499 8.89067 36.3153 9.616C37.6806 10.3413 38.7473 11.3867 39.5153 12.752C40.3046 14.096 40.6993 15.664 40.6993 17.456ZM31.7713 12.304C30.6406 12.304 29.6913 12.624 28.9233 13.264C28.1553 13.904 27.6859 14.7787 27.5153 15.888H35.9953C35.8246 14.8 35.3553 13.936 34.5873 13.296C33.8193 12.6347 32.8806 12.304 31.7713 12.304ZM52.3428 26.256C50.5081 26.256 48.8548 25.8827 47.3828 25.136C45.9321 24.368 44.7908 23.312 43.9588 21.968C43.1481 20.624 42.7428 19.0987 42.7428 17.392C42.7428 15.6853 43.1481 14.16 43.9588 12.816C44.7908 11.472 45.9321 10.4267 47.3828 9.68C48.8548 8.912 50.5081 8.528 52.3428 8.528C54.1561 8.528 55.7348 8.912 57.0788 9.68C58.4441 10.4267 59.4361 11.504 60.0548 12.912L56.1828 14.992C55.2868 13.4133 53.9961 12.624 52.3108 12.624C51.0094 12.624 49.9321 13.0507 49.0788 13.904C48.2254 14.7573 47.7988 15.92 47.7988 17.392C47.7988 18.864 48.2254 20.0267 49.0788 20.88C49.9321 21.7333 51.0094 22.16 52.3108 22.16C54.0174 22.16 55.3081 21.3707 56.1828 19.792L60.0548 21.904C59.4361 23.2693 58.4441 24.336 57.0788 25.104C55.7348 25.872 54.1561 26.256 52.3428 26.256ZM62.929 8.784H67.921V26H62.929V8.784ZM65.425 6.384C64.5077 6.384 63.761 6.11733 63.185 5.584C62.609 5.05067 62.321 4.38933 62.321 3.6C62.321 2.81067 62.609 2.14933 63.185 1.616C63.761 1.08267 64.5077 0.815998 65.425 0.815998C66.3423 0.815998 67.089 1.072 67.665 1.584C68.241 2.096 68.529 2.736 68.529 3.504C68.529 4.336 68.241 5.02933 67.665 5.584C67.089 6.11733 66.3423 6.384 65.425 6.384ZM82.73 8.528C84.33 8.528 85.7807 8.90133 87.082 9.648C88.4047 10.3733 89.4393 11.408 90.186 12.752C90.9327 14.0747 91.306 15.6213 91.306 17.392C91.306 19.1627 90.9327 20.72 90.186 22.064C89.4393 23.3867 88.4047 24.4213 87.082 25.168C85.7807 25.8933 84.33 26.256 82.73 26.256C80.5327 26.256 78.8047 25.5627 77.546 24.176V32.208H72.554V8.784H77.322V10.768C78.5593 9.27467 80.362 8.528 82.73 8.528ZM81.866 22.16C83.146 22.16 84.1913 21.7333 85.002 20.88C85.834 20.0053 86.25 18.8427 86.25 17.392C86.25 15.9413 85.834 14.7893 85.002 13.936C84.1913 13.0613 83.146 12.624 81.866 12.624C80.586 12.624 79.53 13.0613 78.698 13.936C77.8873 14.7893 77.482 15.9413 77.482 17.392C77.482 18.8427 77.8873 20.0053 78.698 20.88C79.53 21.7333 80.586 22.16 81.866 22.16ZM111.512 17.456C111.512 17.52 111.48 17.968 111.416 18.8H98.3918C98.6264 19.8667 99.1811 20.7093 100.056 21.328C100.93 21.9467 102.018 22.256 103.32 22.256C104.216 22.256 105.005 22.128 105.688 21.872C106.392 21.5947 107.042 21.168 107.64 20.592L110.296 23.472C108.674 25.328 106.306 26.256 103.192 26.256C101.25 26.256 99.5331 25.8827 98.0398 25.136C96.5464 24.368 95.3944 23.312 94.5838 21.968C93.7731 20.624 93.3678 19.0987 93.3678 17.392C93.3678 15.7067 93.7624 14.192 94.5518 12.848C95.3624 11.4827 96.4611 10.4267 97.8478 9.68C99.2558 8.912 100.824 8.528 102.552 8.528C104.237 8.528 105.762 8.89067 107.128 9.616C108.493 10.3413 109.56 11.3867 110.328 12.752C111.117 14.096 111.512 15.664 111.512 17.456ZM102.584 12.304C101.453 12.304 100.504 12.624 99.7358 13.264C98.9678 13.904 98.4984 14.7787 98.3278 15.888H106.808C106.637 14.8 106.168 13.936 105.4 13.296C104.632 12.6347 103.693 12.304 102.584 12.304ZM120.627 26.256C119.198 26.256 117.801 26.0853 116.435 25.744C115.07 25.3813 113.982 24.9333 113.171 24.4L114.835 20.816C115.603 21.3067 116.531 21.712 117.619 22.032C118.707 22.3307 119.774 22.48 120.819 22.48C122.931 22.48 123.987 21.9573 123.987 20.912C123.987 20.4213 123.699 20.0693 123.123 19.856C122.547 19.6427 121.662 19.4613 120.467 19.312C119.059 19.0987 117.897 18.8533 116.979 18.576C116.062 18.2987 115.262 17.808 114.579 17.104C113.918 16.4 113.587 15.3973 113.587 14.096C113.587 13.008 113.897 12.048 114.515 11.216C115.155 10.3627 116.073 9.70133 117.267 9.232C118.483 8.76267 119.913 8.528 121.555 8.528C122.771 8.528 123.977 8.66667 125.171 8.944C126.387 9.2 127.39 9.56267 128.179 10.032L126.515 13.584C125.001 12.7307 123.347 12.304 121.555 12.304C120.489 12.304 119.689 12.4533 119.155 12.752C118.622 13.0507 118.355 13.4347 118.355 13.904C118.355 14.4373 118.643 14.8107 119.219 15.024C119.795 15.2373 120.713 15.44 121.971 15.632C123.379 15.8667 124.531 16.1227 125.427 16.4C126.323 16.656 127.102 17.136 127.763 17.84C128.425 18.544 128.755 19.5253 128.755 20.784C128.755 21.8507 128.435 22.8 127.795 23.632C127.155 24.464 126.217 25.1147 124.979 25.584C123.763 26.032 122.313 26.256 120.627 26.256Z" fill="#FDB100"/>
</svg>
